<?xml version="1.0" encoding="utf-8"?>
<svg xmlns="http://www.w3.org/2000/svg" version="1.1" id="Layer_1" x="0px" y="0px" width="100%" viewBox="192.799 432.363 189.424 51.828" enable-background="new 0 0 612 918" style="background-color:transparent;">
  <path fill="none" opacity="1.000000" stroke="none" d=" M558.000000,919.000000   C372.000000,919.000000 186.500000,919.000000 1.000000,919.000000   C1.000000,613.000000 1.000000,307.000000 1.000000,1.000000   C205.000000,1.000000 409.000000,1.000000 613.000000,1.000000   C613.000000,307.000000 613.000000,613.000000 613.000000,919.000000   C594.833313,919.000000 576.666687,919.000000 558.000000,919.000000  M188.052109,449.698090   C188.088150,451.159180 188.124191,452.620239 188.053268,455.002228   C188.105392,461.665344 188.157516,468.328430 188.046295,475.771637   C188.046295,478.696289 188.046295,481.620941 188.046295,484.951324   C190.421509,484.951324 192.062714,484.952332 193.703918,484.951202   C233.340698,484.923431 272.977509,484.912079 312.614258,484.859833   C330.095795,484.836792 347.577209,484.730560 365.978424,484.805786   C372.309540,484.761414 378.640656,484.717041 385.405243,484.723938   C385.732880,484.569733 385.828491,484.324890 385.855682,483.101257   C385.835449,480.393494 385.815186,477.685760 385.941681,474.075226   C385.889862,470.722992 385.838013,467.370789 385.930450,463.185150   C385.876984,461.780060 385.823517,460.374969 385.917816,458.153290   C385.879669,456.773529 385.841492,455.393768 385.953461,453.101562   C385.908844,449.400970 385.864258,445.700409 385.956879,441.138519   C385.911346,439.396423 385.865784,437.654327 385.949005,435.189880   C384.386841,430.493744 381.145752,428.579468 376.250092,429.142090   C374.791992,429.309692 373.034485,429.495209 371.835144,428.867767   C363.596558,424.557678 354.790558,426.228119 345.200470,426.010956   C332.472870,426.057587 319.745300,426.104218 306.092682,425.974640   C293.050476,426.029602 280.008270,426.084564 266.036713,426.038666   C240.143768,426.038666 214.250824,426.038666 188.149521,426.038666   C188.149521,429.682251 188.149521,432.807373 188.003738,436.798492   C188.064743,438.548157 188.125763,440.297791 188.059326,442.822174   C188.105103,444.877594 188.150879,446.932983 188.052109,449.698090  z"/>
  <path fill="#9D762E" opacity="1.000000" stroke="none" d=" M365.058685,484.662109   C347.577209,484.730560 330.095795,484.836792 312.614258,484.859833   C272.977509,484.912079 233.340698,484.923431 193.703918,484.951202   C192.062714,484.952332 190.421509,484.951324 188.046295,484.951324   C188.046295,481.620941 188.046295,478.696289 188.424408,475.159149   C192.219360,471.992676 195.450134,469.127502 199.091995,466.949799   C206.560730,462.483643 214.279404,458.437805 221.838638,454.119934   C227.557159,450.853516 233.174789,447.410980 238.861374,444.087982   C244.817368,440.607452 250.893082,437.321808 256.740540,433.669312   C260.320160,431.433380 263.568787,428.667450 266.966064,426.139526   C280.008270,426.084564 293.050476,426.029602 306.461853,426.388184   C305.819244,428.636749 304.807495,430.471771 303.154358,433.470123   C310.585541,433.838959 317.181763,434.166321 323.778015,434.493713   C314.595551,437.161743 305.610504,439.537750 296.540771,441.528107   C286.948853,443.633057 277.239441,445.204254 267.652710,447.330383   C261.723969,448.645264 255.928345,450.560364 249.650116,452.195984   C245.439056,453.517548 241.511429,454.553192 237.897629,456.255188   C233.304337,458.418579 229.089020,461.386688 224.489655,463.534424   C216.338287,467.340698 207.981857,470.706207 199.801590,474.453430   C197.973740,475.290741 196.519302,476.943237 194.892944,478.220459   C197.495422,478.688782 200.086502,479.254852 202.707962,479.560181   C203.407684,479.641724 204.172791,478.713562 204.955002,478.612061   C208.495270,478.152710 212.762253,476.398010 215.457550,477.740295   C221.293610,480.646698 225.851700,479.203339 231.413635,477.187500   C242.145859,473.297699 248.784088,464.909058 256.382355,457.160553   C256.618469,457.153351 257.089508,457.116547 257.549316,457.118774   C266.403412,457.570129 275.204254,455.214691 283.888397,460.875610   C272.934235,468.089813 258.907196,466.848419 249.221176,475.888245   C258.079926,475.888245 266.149567,475.888245 274.160278,475.888245   C273.157104,471.191650 273.146027,470.465485 277.958038,469.429565   C284.216736,468.082214 290.681366,467.691284 297.475464,466.908752   C299.560150,466.987183 301.226715,467.045563 302.887207,467.491699   C302.836975,471.275513 300.578735,471.947144 297.818665,471.974823   C293.322906,472.019867 288.825378,471.990906 284.332001,472.115265   C282.674072,472.161133 281.025726,472.552551 279.373016,472.786346   C279.369354,473.277557 279.365723,473.768799 279.362091,474.260010   C282.208801,474.645599 285.052094,475.058990 287.902863,475.411865   C299.972107,476.905792 312.008514,478.926788 324.124420,479.707672   C335.733795,480.455872 347.426605,479.909393 359.082733,479.932922   C362.315704,479.939453 365.271088,480.300262 365.058685,484.662109  z"/>
  <path fill="#CA9945" opacity="1.000000" stroke="none" d=" M266.501404,426.089111   C263.568787,428.667450 260.320160,431.433380 256.740540,433.669312   C250.893082,437.321808 244.817368,440.607452 238.861374,444.087982   C233.174789,447.410980 227.557159,450.853516 221.838638,454.119934   C214.279404,458.437805 206.560730,462.483643 199.091995,466.949799   C195.450134,469.127502 192.219360,471.992676 188.506073,474.769104   C188.157516,468.328430 188.105392,461.665344 188.438828,454.404419   C194.738327,450.640991 200.675369,447.517487 206.556870,444.292694   C209.691681,442.573883 212.730499,440.679993 216.088562,438.711090   C216.878922,437.682312 217.393372,436.807587 217.895645,435.922150   C217.883469,435.911438 217.855240,435.886322 218.213654,435.794739   C219.970779,435.209991 221.492706,434.921326 222.736832,434.171570   C224.263901,433.251404 225.558762,431.945831 226.954010,430.806885   C225.224487,430.201233 223.498154,429.095062 221.764862,429.084045   C216.594910,429.051147 211.352524,429.022614 206.279648,429.854004   C203.695175,430.277527 201.413345,432.547821 198.607300,434.035706   C194.863098,434.702850 191.506302,435.317657 188.149521,435.932495   C188.149521,432.807373 188.149521,429.682251 188.149521,426.038666   C214.250824,426.038666 240.143768,426.038666 266.501404,426.089111  z"/>
  <path fill="#BA8B3B" opacity="1.000000" stroke="none" d=" M365.518555,484.733948   C365.271088,480.300262 362.315704,479.939453 359.082733,479.932922   C347.426605,479.909393 335.733795,480.455872 324.124420,479.707672   C312.008514,478.926788 299.972107,476.905792 287.902863,475.411865   C285.052094,475.058990 282.208801,474.645599 279.362091,474.260010   C279.365723,473.768799 279.369354,473.277557 279.373016,472.786346   C281.025726,472.552551 282.674072,472.161133 284.332001,472.115265   C288.825378,471.990906 293.322906,472.019867 297.818665,471.974823   C300.578735,471.947144 302.836975,471.275513 303.349670,467.463013   C307.217377,467.804169 311.220428,467.699707 313.856537,469.546417   C316.873993,471.660339 318.035004,471.275177 318.702026,468.272583   C319.736755,463.615082 322.827637,462.439178 327.048126,461.983826   C331.737976,461.477814 336.339905,460.188080 341.024933,459.591827   C342.871704,459.356781 344.832092,460.146881 346.753784,460.341888   C351.123596,460.785278 356.066040,462.642883 359.762756,461.245605   C368.415405,457.975098 377.051788,458.954468 385.770020,458.969879   C385.823517,460.374969 385.876984,461.780060 385.443024,463.605835   C378.165405,465.122498 371.360992,466.141235 364.598633,467.388062   C363.429993,467.603577 362.438110,468.784027 361.367371,469.522766   C360.297668,470.260742 359.331207,471.325653 358.147552,471.692383   C350.386566,474.096863 342.523285,475.851410 334.283478,475.085602   C332.568268,474.926178 330.797607,475.363647 329.052490,475.526062   C329.118378,476.021332 329.184265,476.516632 329.250122,477.011902   C331.204071,477.011902 333.160553,477.077789 335.111542,477.001587   C352.006592,476.341553 368.900604,475.656006 385.794952,474.978027   C385.815186,477.685760 385.835449,480.393494 385.620300,483.619995   C385.191223,484.273346 385.053497,484.451324 384.971771,484.672668   C378.640656,484.717041 372.309540,484.761414 365.518555,484.733948  z"/>
  <path fill="#CA9945" opacity="1.000000" stroke="none" d=" M257.089508,457.116547   C257.089508,457.116547 256.618469,457.153351 255.952637,457.125122   C248.430237,456.785461 248.378311,456.736755 250.072968,452.206055   C255.928345,450.560364 261.723969,448.645264 267.652710,447.330383   C277.239441,445.204254 286.948853,443.633057 296.540771,441.528107   C305.610504,439.537750 314.595551,437.161743 323.778015,434.493713   C317.181763,434.166321 310.585541,433.838959 303.154358,433.470123   C304.807495,430.471771 305.819244,428.636749 306.924347,426.476257   C319.745300,426.104218 332.472870,426.057587 345.901825,426.319458   C350.411957,427.403625 354.208984,428.243378 358.031799,428.942291   C367.447601,430.663727 377.525482,429.723175 385.820251,435.912231   C385.865784,437.654327 385.911346,439.396423 385.525909,441.524048   C382.626678,441.001801 380.190125,439.412292 377.685089,439.295868   C360.162048,438.481506 342.747009,438.894104 325.727692,444.125549   C320.631226,445.692139 315.186646,446.126099 309.921051,447.070984   C309.940552,447.063019 309.932190,447.060028 309.842957,446.740112   C308.746826,445.707245 307.739899,444.994263 306.307068,444.277252   C303.257782,444.487671 300.595581,444.488586 298.018311,444.956879   C290.437500,446.334442 282.890381,447.897461 275.003479,449.513214   C270.329773,451.115448 265.935791,452.471497 261.659119,454.130005   C259.999420,454.773621 258.604858,456.100769 257.089508,457.116547  M311.484375,427.485138   C311.484375,427.485138 311.492554,427.515137 311.484375,427.485138  z"/>
  <path fill="#CA9945" opacity="1.000000" stroke="none" d=" M385.843933,458.561584   C377.051788,458.954468 368.415405,457.975098 359.762756,461.245605   C356.066040,462.642883 351.123596,460.785278 346.753784,460.341888   C344.832092,460.146881 342.871704,459.356781 341.024933,459.591827   C336.339905,460.188080 331.737976,461.477814 327.048126,461.983826   C322.827637,462.439178 319.736755,463.615082 318.702026,468.272583   C318.035004,471.275177 316.873993,471.660339 313.856537,469.546417   C311.220428,467.699707 307.217377,467.804169 303.355774,467.075256   C301.226715,467.045563 299.560150,466.987183 297.324402,466.595642   C295.067139,465.415314 293.446899,464.373810 291.678528,463.756989   C286.103638,461.812347 284.200348,455.890106 288.452972,451.997986   C291.541290,451.929413 294.184357,451.870819 297.306152,451.840820   C311.378723,451.597870 324.971924,451.288513 338.566681,451.078339   C342.539673,451.016937 347.093781,450.026398 350.370178,451.586121   C356.824402,454.658661 363.330750,453.745941 369.868042,453.950684   C375.175293,454.116821 380.491241,454.003418 385.803345,454.014008   C385.841492,455.393768 385.879669,456.773529 385.843933,458.561584  z"/>
  <path fill="#BA8B3B" opacity="1.000000" stroke="none" d=" M385.878418,453.557800   C380.491241,454.003418 375.175293,454.116821 369.868042,453.950684   C363.330750,453.745941 356.824402,454.658661 350.370178,451.586121   C347.093781,450.026398 342.539673,451.016937 338.566681,451.078339   C324.971924,451.288513 311.378723,451.597870 297.471741,451.515259   C299.153839,450.418518 301.124725,449.599365 303.150940,448.953857   C305.374542,448.245422 307.649170,447.697052 309.901550,447.078949   C315.186646,446.126099 320.631226,445.692139 325.727692,444.125549   C342.747009,438.894104 360.162048,438.481506 377.685089,439.295868   C380.190125,439.412292 382.626678,441.001801 385.457306,441.954681   C385.864258,445.700409 385.908844,449.400970 385.878418,453.557800  z"/>
  <path fill="#CA9945" opacity="1.000000" stroke="none" d=" M385.868317,474.526611   C368.900604,475.656006 352.006592,476.341553 335.111542,477.001587   C333.160553,477.077789 331.204071,477.011902 329.250122,477.011902   C329.184265,476.516632 329.118378,476.021332 329.052490,475.526062   C330.797607,475.363647 332.568268,474.926178 334.283478,475.085602   C342.523285,475.851410 350.386566,474.096863 358.147552,471.692383   C359.331207,471.325653 360.297668,470.260742 361.367371,469.522766   C362.438110,468.784027 363.429993,467.603577 364.598633,467.388062   C371.360992,466.141235 378.165405,465.122498 385.370911,464.022522   C385.838013,467.370789 385.889862,470.722992 385.868317,474.526611  z"/>
  <path fill="#BA8B3B" opacity="1.000000" stroke="none" d=" M198.994705,433.983337   C201.413345,432.547821 203.695175,430.277527 206.279648,429.854004   C211.352524,429.022614 216.594910,429.051147 221.764862,429.084045   C223.498154,429.095062 225.224487,430.201233 226.954010,430.806885   C225.558762,431.945831 224.263901,433.251404 222.736832,434.171570   C221.492706,434.921326 219.970779,435.209991 218.020630,435.589844   C214.898605,436.015686 212.067307,436.040985 209.805359,437.188538   C202.489853,440.899902 195.383560,445.023590 188.196655,448.988403   C188.150879,446.932983 188.105103,444.877594 188.509277,442.411560   C193.737152,439.831207 198.515076,437.661469 203.292999,435.491730   C203.159439,435.131195 203.025879,434.770660 202.892319,434.410126   C201.593109,434.267853 200.293915,434.125580 198.994705,433.983337  z"/>
  <path fill="#9D762E" opacity="1.000000" stroke="none" d=" M188.124390,449.343262   C195.383560,445.023590 202.489853,440.899902 209.805359,437.188538   C212.067307,436.040985 214.898605,436.015686 217.662231,435.681458   C217.855240,435.886322 217.883469,435.911438 217.639435,436.094116   C216.867828,437.139587 216.340240,438.002350 215.812637,438.865143   C212.730499,440.679993 209.691681,442.573883 206.556870,444.292694   C200.675369,447.517487 194.738327,450.640991 188.492310,453.943970   C188.124191,452.620239 188.088150,451.159180 188.124390,449.343262  z"/>
  <path fill="#BA8B3B" opacity="1.000000" stroke="none" d=" M385.884644,435.551056   C377.525482,429.723175 367.447601,430.663727 358.031799,428.942291   C354.208984,428.243378 350.411957,427.403625 346.376526,426.379944   C354.790558,426.228119 363.596558,424.557678 371.835144,428.867767   C373.034485,429.495209 374.791992,429.309692 376.250092,429.142090   C381.145752,428.579468 384.386841,430.493744 385.884644,435.551056  z"/>
  <path fill="#9D762E" opacity="1.000000" stroke="none" d=" M198.607300,434.035706   C200.293915,434.125580 201.593109,434.267853 202.892319,434.410126   C203.025879,434.770660 203.159439,435.131195 203.292999,435.491730   C198.515076,437.661469 193.737152,439.831207 188.572998,442.024200   C188.125763,440.297791 188.064743,438.548157 188.076630,436.365479   C191.506302,435.317657 194.863098,434.702850 198.607300,434.035706  z"/>
  <path fill="#9D762E" opacity="1.000000" stroke="none" d=" M385.188507,484.698303   C385.053497,484.451324 385.191223,484.273346 385.538513,484.064056   C385.828491,484.324890 385.732880,484.569733 385.188507,484.698303  z"/>
  <path fill="#BA8B3B" opacity="1.000000" stroke="none" d=" M249.650116,452.195984   C248.378311,456.736755 248.430237,456.785461 255.716522,457.132324   C248.784088,464.909058 242.145859,473.297699 231.413635,477.187500   C225.851700,479.203339 221.293610,480.646698 215.457550,477.740295   C212.762253,476.398010 208.495270,478.152710 204.955002,478.612061   C204.172791,478.713562 203.407684,479.641724 202.707962,479.560181   C200.086502,479.254852 197.495422,478.688782 194.892944,478.220459   C196.519302,476.943237 197.973740,475.290741 199.801590,474.453430   C207.981857,470.706207 216.338287,467.340698 224.489655,463.534424   C229.089020,461.386688 233.304337,458.418579 237.897629,456.255188   C241.511429,454.553192 245.439056,453.517548 249.650116,452.195984  z"/>
  <path fill="#BA8B3B" opacity="1.000000" stroke="none" d=" M288.007690,452.007996   C284.200348,455.890106 286.103638,461.812347 291.678528,463.756989   C293.446899,464.373810 295.067139,465.415314 296.906250,466.575592   C290.681366,467.691284 284.216736,468.082214 277.958038,469.429565   C273.146027,470.465485 273.157104,471.191650 274.160278,475.888245   C266.149567,475.888245 258.079926,475.888245 249.221176,475.888245   C258.907196,466.848419 272.934235,468.089813 283.888397,460.875610   C275.204254,455.214691 266.403412,457.570129 257.549316,457.118774   C258.604858,456.100769 259.999420,454.773621 261.659119,454.130005   C265.935791,452.471497 270.329773,451.115448 275.124268,449.806519   C279.717010,450.652313 283.862335,451.330139 288.007690,452.007996  z"/>
  <path fill="#BA8B3B" opacity="1.000000" stroke="none" d=" M216.088562,438.711090   C216.340240,438.002350 216.867828,437.139587 217.651611,436.104858   C217.393372,436.807587 216.878922,437.682312 216.088562,438.711090  z"/>
  <path fill="#9D762E" opacity="1.000000" stroke="none" d=" M288.452972,451.997986   C283.862335,451.330139 279.717010,450.652313 275.450867,449.681183   C282.890381,447.897461 290.437500,446.334442 298.018311,444.956879   C300.595581,444.488586 303.257782,444.487671 306.442139,444.566833   C307.979431,445.593658 308.955811,446.326843 309.932190,447.059998   C309.932190,447.060028 309.940552,447.063019 309.921051,447.070984   C307.649170,447.697052 305.374542,448.245422 303.150940,448.953857   C301.124725,449.599365 299.153839,450.418518 296.992981,451.486694   C294.184357,451.870819 291.541290,451.929413 288.452972,451.997986  z"/>
  <path fill="#BA8B3B" opacity="1.000000" stroke="none" d=" M309.842957,446.740112   C308.955811,446.326843 307.979431,445.593658 306.868011,444.570862   C307.739899,444.994263 308.746826,445.707245 309.842957,446.740112  z"/>
  <path fill="#9D762E" opacity="1.000000" stroke="none" d=" M311.488464,427.500122   C311.492554,427.515137 311.484375,427.485138 311.488464,427.500122  z"/>
</svg>